<svg xmlns="http://www.w3.org/2000/svg" viewBox="0 0 500 500"><g id="freepik--background-complete--inject-25"><path d="M265.06,474.05l-10.21-156.82,.35-.02,11.59,156.73c-.58,.04-1.15,.08-1.73,.12Zm-31.68-.11l-1.51-.12,12.53-156.65,.57,.04-11.59,156.73Zm65.31-4.7l-34.29-153.37,.74-.17,34.83,153.25-1.29,.29Zm-98.48-.25l-1.48-.34,35.71-153.05,.55,.13-34.78,153.26Zm130.44-9.39l-56.45-146.67,.41-.16,57.56,146.23c-.51,.2-1.02,.4-1.53,.6Zm-162.58-.49l-1.41-.56,58.21-145.98,.53,.21-57.33,146.33Zm193.04-13.95l-77.97-136.45,.52-.3,78.72,136.02-1.28,.73Zm-223.38-.66c-.47-.27-.93-.54-1.4-.81l79.66-135.47,.4,.24-78.67,136.05Zm251.03-17.95l-97.09-123.57,.3-.24,98.12,122.76c-.44,.35-.88,.7-1.32,1.05Zm-278.67-.9c-.49-.39-.98-.78-1.46-1.17l99.19-121.9,.16,.13-97.89,122.94Zm303.48-21.81l-114.54-107.61,.36-.39,115.23,106.87-1.06,1.13Zm-328.09-1l-.99-1.07,115.67-106.38,.42,.46-115.11,106.99Zm349.07-24.9l-129.03-89.72,.19-.28,129.83,88.56c-.33,.48-.66,.96-.99,1.44Zm-369.97-1.24c-.31-.45-.62-.91-.93-1.36l130.37-87.76,.24,.35-129.68,88.78Zm387.12-27.94l-141.21-68.98,.32-.66,141.48,68.43-.59,1.22Zm-403.96-1.1c-.24-.5-.48-1-.72-1.5l142.02-67.29,.18,.37L47.75,347.66Zm416.38-29.91l-149.81-47.48,.11-.37,150.21,46.22c-.17,.54-.34,1.09-.51,1.63Zm-428.72-1.42c-.16-.51-.31-1.02-.47-1.52l150.49-45.29,.14,.46-150.17,46.35Zm436.45-31.51l-155.3-24.11,.09-.58,155.44,23.2-.23,1.48Zm-443.92-1.22c-.08-.53-.16-1.06-.23-1.6l155.57-22.29,.07,.46-155.4,23.43Zm446.61-31.88l-157.15-1.39v-.65h157.16v.31c0,.58,0,1.16,0,1.74Zm-291.96-1.58H25.44v-1.45l157.16,.82v.63Zm134.1-10.05l-.05-.33,155.37-23.65c.09,.57,.17,1.15,.26,1.73l-155.57,22.26Zm-133.36-.23L27.86,216.92c.08-.54,.16-1.09,.25-1.63l155.29,24.14-.06,.43Zm131.26-9.26l-.22-.72,150.15-46.41,.39,1.27-150.32,45.86Zm-129.07-.41L35.3,184.03l.46-1.48,149.92,47.13-.16,.51Zm125.47-8.98l-.27-.56,141.44-68.51,.63,1.3-141.8,67.76Zm-121.84-.3L47.59,152.66l.64-1.31,141.21,68.98-.28,.57Zm116.9-8.39l-.4-.59,129.68-88.78,.77,1.12-130.04,88.24Zm-111.82-.41L64.33,123.65c.3-.45,.61-.89,.92-1.34l129.25,89.41-.26,.38Zm105.32-7.82l-.2-.21,115-107.11c.41,.44,.81,.87,1.21,1.31l-116.01,106.01Zm-99.01-.1L85.2,97.44c.37-.4,.73-.79,1.1-1.18l114.55,107.59-.32,.34Zm91.7-6.74l-.35-.28,97.89-122.94c.43,.34,.85,.68,1.28,1.02l-98.82,122.2Zm-84.26-.17L109.71,74.63c.44-.35,.88-.7,1.32-1.05l97.24,123.46-.3,.24Zm76.03-5.52l-.45-.26L362.04,55.34l1.35,.78-79.39,135.63Zm-67.72-.17L137.39,55.67c.47-.27,.93-.54,1.4-.81l77.9,136.49-.4,.23Zm58.62-4.28l-.41-.16,57.25-146.36c.51,.2,1.02,.4,1.53,.6l-58.37,145.92Zm-49.57-.1L167.57,41.06c.52-.2,1.03-.41,1.55-.61l56.6,146.61-.39,.15Zm40.07-2.88l-.41-.09L299.5,30.92c.54,.12,1.08,.24,1.61,.37l-35.71,153.05Zm-30.59-.05L199.77,31.08c.55-.12,1.09-.25,1.64-.37l33.8,153.48-.39,.09Zm20.62-1.49l-.44-.03,11.36-156.74c.54,.04,1.09,.08,1.63,.12l-12.55,156.65Zm-10.65-.02l-11.84-156.71c.54-.04,1.09-.08,1.63-.12l10.65,156.79-.44,.03Z" style="fill:#f5f5f5;"></path><g><g><g><path d="M443.92,330.2h-180.75c-3.23,0-5.86-2.63-5.86-5.86V61.06c0-3.23,2.63-5.86,5.86-5.86h180.75c3.23,0,5.86,2.63,5.86,5.86V324.34c0,3.23-2.63,5.86-5.86,5.86ZM263.17,55.45c-3.09,0-5.61,2.52-5.61,5.61V324.34c0,3.09,2.52,5.61,5.61,5.61h180.75c3.09,0,5.61-2.52,5.61-5.61V61.06c0-3.09-2.52-5.61-5.61-5.61h-180.75Z" style="fill:#e0e0e0;"></path><path d="M235.49,330.2H54.75c-3.23,0-5.86-2.63-5.86-5.86V61.06c0-3.23,2.63-5.86,5.86-5.86H235.49c3.23,0,5.86,2.63,5.86,5.86V324.34c0,3.23-2.63,5.86-5.86,5.86ZM54.75,55.45c-3.09,0-5.61,2.52-5.61,5.61V324.34c0,3.09,2.52,5.61,5.61,5.61H235.49c3.09,0,5.61-2.52,5.61-5.61V61.06c0-3.09-2.52-5.61-5.61-5.61H54.75Z" style="fill:#e0e0e0;"></path></g><rect x="0" y="391.27" width="500" height=".25" style="fill:#e0e0e0;"></rect></g><rect x="51.67" y="405.53" width="16.06" height=".25" style="fill:#e0e0e0;"></rect><rect x="170.35" y="402.82" width="53.53" height=".25" style="fill:#e0e0e0;"></rect><rect x="68.73" y="414.82" width="36.25" height=".25" style="fill:#e0e0e0;"></rect><rect x="378.35" y="402.69" width="43.19" height=".25" style="fill:#e0e0e0;"></rect><rect x="430.45" y="402.69" width="6.33" height=".25" style="fill:#e0e0e0;"></rect><rect x="316.21" y="408.92" width="53.89" height=".25" style="fill:#e0e0e0;"></rect></g></g><g id="freepik--Leaves--inject-25"><g><g><path d="M127.49,397.86c-47.94-36.33-72.77-100.48-61.79-159.62,5.33-28.7,18.24-55.6,37.34-77.79,18.76-21.8,43.5-39.11,71.53-50.05l.73,1.86c-27.73,10.83-52.2,27.94-70.75,49.49-18.87,21.92-31.62,48.5-36.89,76.85-10.85,58.42,13.68,121.78,61.03,157.66l-1.21,1.59Z" style="fill:#80A0ED;"></path><path d="M106.96,380.21c6.77-2.36,11.09-7.75,12.76-14.72s.38-14.42-2.46-21.01-7.17-12.42-11.74-17.95c-6.56,17.15-6.03,36.9,1.44,53.67" style="fill:#80A0ED;"></path><path d="M108.78,379.79c-4.95,5.19-11.64,6.89-18.68,5.53-7.04-1.36-13.29-5.61-18.11-10.92-4.82-5.31-8.34-11.66-11.49-18.11,18.33,1.11,36.09,9.76,48.28,23.5" style="fill:#80A0ED;"></path><path d="M80.38,338.81c7.15-.56,12.69-4.67,16.08-11s4.04-13.85,2.96-20.94c-1.08-7.09-3.78-13.83-6.79-20.34-10.71,14.92-15.22,34.15-12.25,52.28" style="fill:#80A0ED;"></path><path d="M79.79,338.73c-5.38,4.75-12.19,5.86-19.09,3.89-6.9-1.97-12.75-6.74-17.1-12.45-4.34-5.71-7.3-12.34-9.88-19.03,18.17,2.7,35.11,12.85,46.06,27.59" style="fill:#80A0ED;"></path><path d="M62.59,290.4c6.64,2.71,13.44,1.52,19.3-2.62,5.86-4.13,9.82-10.57,12.04-17.39,2.22-6.82,2.83-14.06,3.05-21.23-16.26,8.53-28.92,23.7-34.39,41.23" style="fill:#80A0ED;"></path><path d="M66.32,290.47c-6.65,2.68-13.45,1.46-19.29-2.69s-9.78-10.6-11.97-17.43c-2.19-6.83-2.78-14.07-2.97-21.24,16.23,8.59,28.83,23.81,34.24,41.36" style="fill:#80A0ED;"></path><path d="M63.49,243.82c5.55,4.55,12.4,5.41,19.22,3.19s12.5-7.2,16.63-13.07c4.13-5.86,6.85-12.6,9.18-19.38-18.06,3.36-34.62,14.12-45.02,29.26" style="fill:#80A0ED;"></path><path d="M65.92,244.92c-7.16,.42-13.21-2.91-17.42-8.71s-5.88-13.17-5.77-20.35c.1-7.17,1.87-14.22,3.97-21.07,12.63,13.33,19.7,31.78,19.22,50.13" style="fill:#80A0ED;"></path><path d="M76.1,199.43c3.48,6.27,9.53,9.6,16.69,10.05s14.27-2.09,20.27-6.02,11.01-9.19,15.67-14.64c-18.02-3.53-37.39,.37-52.63,10.61" style="fill:#80A0ED;"></path><path d="M80.06,203.33c-7.15-.57-12.69-4.69-16.07-11.01-3.38-6.33-4.02-13.85-2.94-20.94,1.08-7.09,3.79-13.83,6.82-20.33,10.69,14.93,15.18,34.17,12.19,52.29" style="fill:#80A0ED;"></path><path d="M98.07,165.81c3.05,6.49,8.86,10.22,15.97,11.15,7.11,.93,14.38-1.12,20.63-4.63s11.6-8.42,16.63-13.54c-17.74-4.74-37.33-2.16-53.23,7.03" style="fill:#80A0ED;"></path><path d="M101.63,168.27c-6.89-1.99-11.49-7.14-13.53-14.02-2.04-6.88-1.16-14.38,1.33-21.11,2.49-6.73,6.49-12.78,10.76-18.55,7.47,16.78,8,36.52,1.43,53.67" style="fill:#80A0ED;"></path><path d="M129.19,137.78c2.18,6.83,7.45,11.29,14.38,13.14,6.93,1.85,14.4,.76,21.06-1.9s12.6-6.84,18.25-11.26c-16.97-7.02-36.73-7.01-53.69,.02" style="fill:#80A0ED;"></path><path d="M129.73,138.16c-6.89-1.99-11.49-7.14-13.53-14.02-2.04-6.88-1.16-14.38,1.33-21.11,2.49-6.73,6.49-12.78,10.76-18.55,7.47,16.78,8,36.52,1.43,53.67" style="fill:#80A0ED;"></path><path d="M154.57,103.29c5.69-5.84,13.63-9.13,21.69-10.4s16.3-.65,24.39,.38c-9.06,22.51-35.96,40.39-54.6,32.48-1.85-7.95,2.82-16.62,8.51-22.47Z" style="fill:#80A0ED;"></path></g><g style="opacity:.8;"><path d="M127.52,397.82c-47.93-36.32-72.75-100.45-61.77-159.58,5.33-28.69,18.24-55.58,37.33-77.77,18.75-21.79,43.49-39.1,71.52-50.04l.69,1.78c-27.74,10.83-52.21,27.95-70.77,49.51-18.87,21.93-31.63,48.51-36.9,76.87-10.85,58.43,13.68,121.81,61.05,157.71l-1.15,1.52Z" style="fill:#fff;"></path><path d="M106.96,380.21c6.77-2.36,11.09-7.75,12.76-14.72s.38-14.42-2.46-21.01-7.17-12.42-11.74-17.95c-6.56,17.15-6.03,36.9,1.44,53.67" style="fill:#fff;"></path><path d="M108.78,379.79c-4.95,5.19-11.64,6.89-18.68,5.53-7.04-1.36-13.29-5.61-18.11-10.92-4.82-5.31-8.34-11.66-11.49-18.11,18.33,1.11,36.09,9.76,48.28,23.5" style="fill:#fff;"></path><path d="M80.38,338.81c7.15-.56,12.69-4.67,16.08-11s4.04-13.85,2.96-20.94c-1.08-7.09-3.78-13.83-6.79-20.34-10.71,14.92-15.22,34.15-12.25,52.28" style="fill:#fff;"></path><path d="M79.79,338.73c-5.38,4.75-12.19,5.86-19.09,3.89-6.9-1.97-12.75-6.74-17.1-12.45-4.34-5.71-7.3-12.34-9.88-19.03,18.17,2.7,35.11,12.85,46.06,27.59" style="fill:#fff;"></path><path d="M62.59,290.4c6.64,2.71,13.44,1.52,19.3-2.62,5.86-4.13,9.82-10.57,12.04-17.39,2.22-6.82,2.83-14.06,3.05-21.23-16.26,8.53-28.92,23.7-34.39,41.23" style="fill:#fff;"></path><path d="M66.32,290.47c-6.65,2.68-13.45,1.46-19.29-2.69s-9.78-10.6-11.97-17.43c-2.19-6.83-2.78-14.07-2.97-21.24,16.23,8.59,28.83,23.81,34.24,41.36" style="fill:#fff;"></path><path d="M63.49,243.82c5.55,4.55,12.4,5.41,19.22,3.19s12.5-7.2,16.63-13.07c4.13-5.86,6.85-12.6,9.18-19.38-18.06,3.36-34.62,14.12-45.02,29.26" style="fill:#fff;"></path><path d="M65.92,244.92c-7.16,.42-13.21-2.91-17.42-8.71s-5.88-13.17-5.77-20.35c.1-7.17,1.87-14.22,3.97-21.07,12.63,13.33,19.7,31.78,19.22,50.13" style="fill:#fff;"></path><path d="M76.1,199.43c3.48,6.27,9.53,9.6,16.69,10.05s14.27-2.09,20.27-6.02,11.01-9.19,15.67-14.64c-18.02-3.53-37.39,.37-52.63,10.61" style="fill:#fff;"></path><path d="M80.06,203.33c-7.15-.57-12.69-4.69-16.07-11.01-3.38-6.33-4.02-13.85-2.94-20.94,1.08-7.09,3.79-13.83,6.82-20.33,10.69,14.93,15.18,34.17,12.19,52.29" style="fill:#fff;"></path><path d="M98.07,165.81c3.05,6.49,8.86,10.22,15.97,11.15,7.11,.93,14.38-1.12,20.63-4.63s11.6-8.42,16.63-13.54c-17.74-4.74-37.33-2.16-53.23,7.03" style="fill:#fff;"></path><path d="M101.63,168.27c-6.89-1.99-11.49-7.14-13.53-14.02-2.04-6.88-1.16-14.38,1.33-21.11,2.49-6.73,6.49-12.78,10.76-18.55,7.47,16.78,8,36.52,1.43,53.67" style="fill:#fff;"></path><path d="M129.19,137.78c2.18,6.83,7.45,11.29,14.38,13.14,6.93,1.85,14.4,.76,21.06-1.9s12.6-6.84,18.25-11.26c-16.97-7.02-36.73-7.01-53.69,.02" style="fill:#fff;"></path><path d="M129.73,138.16c-6.89-1.99-11.49-7.14-13.53-14.02-2.04-6.88-1.16-14.38,1.33-21.11,2.49-6.73,6.49-12.78,10.76-18.55,7.47,16.78,8,36.52,1.43,53.67" style="fill:#fff;"></path><path d="M154.57,103.29c5.69-5.84,13.63-9.13,21.69-10.4s16.3-.65,24.39,.38c-9.06,22.51-35.96,40.39-54.6,32.48-1.85-7.95,2.82-16.62,8.51-22.47Z" style="fill:#fff;"></path></g></g><g><g><path d="M344.72,394.89l-.73-1.86c54.34-21.25,94.46-74.56,99.83-132.65,2.61-28.2-2.34-56.72-14.3-82.48-11.76-25.32-30.3-48.04-53.61-65.69l1.21-1.59c23.57,17.84,42.32,40.82,54.22,66.44,12.11,26.08,17.12,54.96,14.48,83.51-5.44,58.83-46.07,112.82-101.09,134.33Z" style="fill:#80A0ED;"></path><path d="M368.83,383.69c-5.77-4.04-8.41-10.29-8.12-17.32,.29-7.04,3.49-13.73,7.94-19.19s10.1-9.82,15.89-13.82c1.62,17.96-4.17,36.48-15.72,50.34" style="fill:#80A0ED;"></path><path d="M367.23,382.81c3.29,6.23,9.15,9.63,16.17,10.22,7.02,.59,14.06-1.75,20.04-5.48,5.98-3.73,11-8.79,15.7-14.04-17.62-3.85-36.72-.43-51.91,9.3" style="fill:#80A0ED;"></path><path d="M405.02,351.68c-6.61-2.44-10.74-7.81-12.25-14.69-1.51-6.88-.11-14.17,2.8-20.58,2.91-6.41,7.27-12.06,11.86-17.41,6.13,16.96,5.24,36.34-2.41,52.68" style="fill:#80A0ED;"></path><path d="M405.6,351.76c3.81,5.92,9.95,8.8,17,8.78,7.04-.02,13.85-2.96,19.49-7.19,5.63-4.23,10.2-9.71,14.42-15.35-17.89-2.31-36.62,2.75-50.91,13.76" style="fill:#80A0ED;"></path><path d="M434.78,310.69c-7,.78-13.11-2.16-17.54-7.64-4.44-5.47-6.45-12.61-6.73-19.65-.27-7.04,1.09-14.04,2.79-20.88,13.09,12.41,20.99,30.13,21.47,48.16" style="fill:#80A0ED;"></path><path d="M431.24,309.76c5.57,4.32,12.31,4.98,18.95,2.62,6.64-2.36,12.08-7.41,15.98-13.27,3.9-5.87,6.39-12.55,8.49-19.27-17.64,3.78-33.61,14.79-43.42,29.93" style="fill:#80A0ED;"></path><path d="M446.4,266.43c-6.46,2.81-13.16,1.8-19.01-2.12-5.85-3.92-9.88-10.15-12.22-16.8-2.34-6.65-3.1-13.74-3.49-20.77,16.16,8,28.94,22.61,34.72,39.69" style="fill:#80A0ED;"></path><path d="M443.8,266.82c6.66,2.31,13.26,.78,18.79-3.58,5.53-4.36,9.08-10.88,10.9-17.68,1.82-6.81,2.04-13.93,1.88-20.98-15.5,9.22-27.12,24.76-31.57,42.24" style="fill:#80A0ED;"></path><path d="M446.35,221.11c-4.97,4.99-11.57,6.52-18.46,5.03-6.89-1.49-12.93-5.79-17.55-11.11-4.62-5.32-7.95-11.63-10.89-18.03,17.98,1.48,35.23,10.35,46.9,24.11" style="fill:#80A0ED;"></path><path d="M441.56,223.73c6.91,1.38,13.24-1.04,18.13-6.11,4.89-5.08,7.51-12.02,8.38-19.01,.87-6.99,.12-14.08-1-21.04-14.1,11.25-23.48,28.23-25.5,46.16" style="fill:#80A0ED;"></path><path d="M434.58,183.46c-4.62,5.32-11.11,7.29-18.08,6.27-6.97-1.02-13.29-4.91-18.26-9.9-4.97-4.99-8.71-11.06-12.09-17.25,18.04,.26,35.85,7.95,48.42,20.88" style="fill:#80A0ED;"></path><path d="M430.55,184.83c7.04-.04,12.76-3.68,16.53-9.63,3.77-5.95,4.94-13.28,4.39-20.3s-2.72-13.82-5.21-20.41c-11.55,13.85-17.33,32.38-15.71,50.34" style="fill:#80A0ED;"></path><path d="M412.67,148.64c-3.89,5.88-10.06,8.67-17.1,8.57-7.04-.1-13.82-3.13-19.4-7.43-5.58-4.3-10.08-9.83-14.23-15.52,17.92-2.09,36.58,3.2,50.73,14.38" style="fill:#80A0ED;"></path><path d="M412.05,148.86c7.04-.04,12.76-3.68,16.53-9.63,3.77-5.95,4.94-13.28,4.39-20.3-.55-7.02-2.72-13.82-5.21-20.41-11.55,13.85-17.33,32.38-15.71,50.34" style="fill:#80A0ED;"></path><path d="M397.91,109.26c-3.82-7.05-10.44-12.28-17.72-15.63s-15.23-4.98-23.15-6.16c2.54,23.69,23.18,47.79,42.91,45.3,3.87-7.01,1.78-16.46-2.03-23.51Z" style="fill:#80A0ED;"></path></g><g style="opacity:.8;"><path d="M405.6,351.76c3.81,5.92,9.95,8.8,17,8.78,7.04-.02,13.85-2.96,19.49-7.19,5.63-4.23,10.2-9.71,14.42-15.35-17.89-2.31-36.62,2.75-50.91,13.76Z" style="fill:#fff;"></path><path d="M434.77,304.84c4.94-12.06,8.42-24.71,10.2-37.66,6.26,1.75,12.42,.16,17.63-3.94,5.53-4.36,9.08-10.88,10.9-17.68,1.82-6.81,2.04-13.93,1.88-20.98-13.61,8.09-24.22,21.05-29.62,35.92,1.12-12.15,.84-24.37-.77-36.4,5.57,.11,10.64-2.26,14.71-6.48,4.89-5.08,7.51-12.02,8.38-19.01,.87-6.99,.12-14.08-1-21.04-11.58,9.24-19.96,22.35-23.72,36.66-2-10.17-4.98-20.16-8.9-29.82,5.27-1.11,9.59-4.4,12.64-9.22,3.77-5.95,4.94-13.28,4.39-20.3s-2.72-13.82-5.21-20.41c-9.5,11.4-15.09,25.96-15.87,40.76-4.44-9.25-9.76-18.14-15.89-26.56,5.92-.77,10.76-4.22,14.08-9.46,3.77-5.95,4.94-13.28,4.39-20.3-.55-7.02-2.72-13.82-5.21-20.41-10.74,12.89-16.49,29.82-15.93,46.58-3.55-4.62-7.36-9.08-11.38-13.38,3.14-6.89,1.08-15.76-2.55-22.46-3.82-7.05-10.44-12.28-17.72-15.63-7.28-3.35-15.23-4.98-23.15-6.16,2.5,23.29,22.49,46.96,41.91,45.38,4.46,4.76,8.64,9.73,12.52,14.89-14-10.55-32.12-15.52-49.54-13.49,4.15,5.69,8.66,11.22,14.23,15.52,5.58,4.3,12.35,7.33,19.4,7.43,6.89,.1,12.95-2.58,16.84-8.21,6.71,9.1,12.48,18.77,17.17,28.86,.24,.52,.46,1.04,.69,1.56-12.17-10.48-28.05-16.61-44.12-16.85,3.37,6.18,7.12,12.25,12.09,17.25,4.97,4.99,11.29,8.88,18.26,9.9,6.11,.89,11.84-.51,16.27-4.44,4.06,10.04,7.1,20.44,9.06,31.03-11.38-11-26.61-18-42.39-19.3,2.95,6.4,6.27,12.71,10.89,18.03s10.66,9.62,17.55,11.11c5.34,1.16,10.52,.49,14.89-2.2,.1,.01,.2,.02,.31,.04,1.63,11.95,1.92,24.09,.82,36.17-6.54-14.35-18.09-26.4-32.23-33.4,.38,7.03,1.15,14.12,3.49,20.77,2.34,6.65,6.37,12.87,12.22,16.8,4.84,3.24,10.26,4.49,15.64,3.24-1.68,11.78-4.75,23.3-9.08,34.36-2.38-14.89-9.68-28.99-20.63-39.38-1.71,6.83-3.07,13.84-2.79,20.88,.27,7.04,2.29,14.18,6.73,19.65,3.44,4.24,7.88,6.95,12.96,7.6-6.11,13.23-14.02,25.65-23.4,36.82,5.96-15.39,6.24-32.94,.63-48.47-4.59,5.34-8.94,10.99-11.86,17.41-2.91,6.41-4.31,13.7-2.8,20.58,1.4,6.39,5.07,11.48,10.88,14.12-8.99,10.09-19.2,19.08-30.4,26.62,8.57-12.97,12.69-28.87,11.3-44.37-5.8,4-11.45,8.36-15.89,13.82s-7.65,12.15-7.94,19.19c-.25,6.08,1.68,11.56,5.93,15.54-7.21,4.34-14.76,8.1-22.63,11.18l.68,1.74c7.97-3.12,15.62-6.93,22.93-11.33,3.35,5.78,9.03,8.95,15.78,9.52,7.02,.59,14.06-1.75,20.04-5.48,5.98-3.73,11-8.79,15.7-14.04-14.35-3.13-29.67-1.45-43.06,4.53,24.26-16.81,43.84-40.38,56.11-67.24,.18,0,.37,0,.56,0,5.26,3.35,11.4,3.73,17.45,1.57,6.64-2.36,12.08-7.41,15.98-13.27,3.9-5.87,6.39-12.55,8.49-19.27-15.66,3.36-30,12.43-39.89,25.01Z" style="fill:#fff;"></path></g></g><ellipse cx="247.13" cy="459.61" rx="185.01" ry="9.5" style="fill:#f5f5f5;"></ellipse></g><g id="freepik--Stars--inject-25"><g><polygon points="170.88 367.84 173.14 371.98 177.29 374.25 173.14 376.52 170.88 380.67 168.61 376.52 164.46 374.25 168.61 371.98 170.88 367.84" style="fill:#80A0ED;"></polygon><polygon points="187.06 356.06 188.47 358.64 191.06 360.06 188.47 361.47 187.06 364.06 185.65 361.47 183.06 360.06 185.65 358.64 187.06 356.06" style="fill:#80A0ED;"></polygon><polygon points="155.85 354.48 156.65 355.93 158.11 356.73 156.65 357.53 155.85 358.99 155.05 357.53 153.6 356.73 155.05 355.93 155.85 354.48" style="fill:#80A0ED;"></polygon></g><g><polygon points="421.89 251.68 422.69 253.14 424.15 253.93 422.69 254.73 421.89 256.19 421.1 254.73 419.64 253.93 421.1 253.14 421.89 251.68" style="fill:#80A0ED;"></polygon><polygon points="401.96 267.89 402.5 268.88 403.49 269.42 402.5 269.96 401.96 270.95 401.42 269.96 400.43 269.42 401.42 268.88 401.96 267.89" style="fill:#80A0ED;"></polygon><polygon points="407.61 244.22 409.33 247.36 412.47 249.08 409.33 250.8 407.61 253.93 405.9 250.8 402.76 249.08 405.9 247.36 407.61 244.22" style="fill:#80A0ED;"></polygon></g><g><polygon points="267.85 92.74 271.42 99.37 278.01 103.03 271.38 106.6 267.73 113.19 264.15 106.56 257.56 102.91 264.19 99.33 267.85 92.74" style="fill:#80A0ED;"></polygon><polygon points="287.51 92.18 288.28 93.58 289.68 94.34 288.28 95.11 287.51 96.51 286.74 95.11 285.34 94.34 286.74 93.58 287.51 92.18" style="fill:#80A0ED;"></polygon><polygon points="243.49 88.13 244.92 90.75 247.54 92.18 244.92 93.61 243.49 96.22 242.06 93.61 239.45 92.18 242.06 90.75 243.49 88.13" style="fill:#80A0ED;"></polygon><polygon points="240.45 111.83 241.17 113.15 242.5 113.87 241.17 114.6 240.45 115.92 239.73 114.6 238.4 113.87 239.73 113.15 240.45 111.83" style="fill:#80A0ED;"></polygon></g></g><g id="freepik--Hat--inject-25"><g><path d="M127.6,313.83c-27.24,4.07-88.59-29.79-43.33-84.32,0,0,35.81-40.05,122.34-81.88,92.33-44.64,161.23-32.55,176.39-25.19,15.16,7.36,47.11,34.29,42.78,64.17-4.33,29.89-40.28,54.58-40.28,54.58l-.87,16.89-257.02,55.75Z" style="fill:#263238;"></path><g style="opacity:.9;"><path d="M127.6,313.83c-27.24,4.07-88.59-29.79-43.33-84.32,0,0,35.81-40.05,122.34-81.88,92.33-44.64,161.23-32.55,176.39-25.19,15.16,7.36,47.11,34.29,42.78,64.17-4.33,29.89-40.28,54.58-40.28,54.58l-.87,16.89-257.02,55.75Z" style="fill:#fff;"></path></g><g style="opacity:.3;"><path d="M180.46,275.83c-16.58,.35-31.42-13-36.18-28.88-4.76-15.88-.9-33.35,6.89-47.99,7.58-14.24,18.6-26.3,29.59-38.12-67.87,36.67-96.49,68.67-96.49,68.67-45.26,54.53,16.09,88.39,43.33,84.32l41.51-9,11.35-29Z"></path></g><path d="M129.42,330.61l-4.49-41.29s55.05-17.97,119.08-27.24,140.85-8.68,140.85-8.68v46.32s-198.13,20.51-255.44,30.89Z" style="fill:#263238;"></path><path d="M156.92,314.28c.23,1.66,113.51,53.88,237.2,37.74,0,0,45.3-5.16,36.69-21.94-8.61-16.77-45.95-31.49-45.95-31.49l-116.7-2.63-111.24,18.32Z" style="fill:#263238;"></path><g style="opacity:.3;"><path d="M431.2,330.98c-5.12,11.09-36.87,14.73-36.87,14.73-91.13,11.96-176.56-13.6-214.83-28.32l-.9,6.02c37.82,14.67,123.89,40.72,215.74,28.67,0,0,43.55-4.99,36.87-21.1Z"></path></g><path d="M155.74,306.21l-.68,11.69c77.61-15.14,152.19-19.65,231.27-20.05v-14.44c-65.48-4.4-152.98,7.66-230.59,22.8Z" style="fill:#80A0ED;"></path><g style="opacity:.3;"><path d="M384.86,287.32c-28.58-1.01-57.21-.33-85.73,1.68-29.44,2.07-58.78,5.55-87.9,10.29-16.33,2.66-32.6,5.72-48.78,9.18-1.89,.4-1.09,3.3,.8,2.89,28.75-6.15,57.77-11.05,86.96-14.63,28.89-3.54,57.95-5.82,87.05-6.59,15.87-.42,31.74-.38,47.61,.18,1.93,.07,1.93-2.93,0-3h0Z"></path></g><g style="opacity:.3;"><path d="M384.86,292.91c-27.2-.49-54.41,.13-81.56,1.72-29.7,1.74-59.34,4.64-88.8,8.79-17.08,2.4-34.11,5.23-51.04,8.53-1.89,.37-1.09,3.26,.8,2.89,30.01-5.85,60.3-10.23,90.72-13.33,28.48-2.91,57.08-4.73,85.7-5.43,14.73-.36,29.46-.43,44.19-.16,1.93,.03,1.93-2.97,0-3h0Z"></path></g><g style="opacity:.3;"><ellipse cx="338.08" cy="229.2" rx="38.4" ry="40.01"></ellipse></g><ellipse cx="340.5" cy="218.62" rx="42.48" ry="44.27" style="fill:#80A0ED;"></ellipse><ellipse cx="340.5" cy="218.62" rx="38.4" ry="40.01" style="fill:#263238;"></ellipse><path d="M125.77,293.5c-2.85-15.14-15.86-23.09-29.09-28.51l-5.64-2.44c1.96,.61,3.89,1.29,5.82,1.97,13.53,4.65,27.35,13.48,28.9,28.98h0Z" style="fill:#263238;"></path><path d="M358.64,219.59c-2.15-.75-6.54,8.93-6.57,10.19-.02,1.26,3.32-.17,3.32-.17l-.67,1.53s-2.41,7.42-10.58,2.2l-1.39-24.11c2.66-.15,4.4-.57,4.8-.68,.39,.81,1.22,1.37,2.18,1.37,1.34,0,2.43-1.09,2.43-2.43s-1.09-2.43-2.43-2.43c-.98,0-1.82,.58-2.2,1.41-1.72-.36-3.4-.57-4.97-.67l-.17-2.89c2.11-.69,3.67-2.91,3.67-5.54,0-3.18-2.27-5.77-5.05-5.77s-5.05,2.59-5.05,5.77c0,2.58,1.49,4.76,3.53,5.5l-.22,2.84c-2.71,.03-4.74,.3-5.49,.41-.37-.87-1.23-1.47-2.24-1.47-1.34,0-2.43,1.09-2.43,2.43s1.09,2.43,2.43,2.43c.79,0,1.49-.39,1.94-.98,1.99,.41,3.84,.62,5.51,.71l-1.82,23.67c-8.27,5.07-10.53-2.4-10.53-2.4l-.64-1.54s3.32,1.5,3.32,.24-3.93-11.53-6.09-10.82c0,0-2.62,1.11-1.97,12.16,.02,.42,.54,.63,.86,.36,.57-.48,1-1.25,1.36-2.17l.5,2.71c.93,8.67,11.33,12.13,13.47,13.73,2.13,1.6,3.31,3.9,3.31,3.9,0,0,.73-1.92,2.9-3.48,2.16-1.56,12.63-4.83,13.72-13.47l.56-2.7c.26,.89,.56,1.63,.96,2.1,.4,.48,1.17,.25,1.24-.37,1-8.77-1.49-11.56-1.49-11.56Zm-20.56-22.22c0-2,1.31-3.64,2.92-3.64s2.92,1.63,2.92,3.64-1.31,3.64-2.92,3.64-2.92-1.63-2.92-3.64Z" style="fill:#80A0ED;"></path><g style="opacity:.3;"><ellipse cx="158.25" cy="311.89" rx="8.39" ry="11.52"></ellipse></g><ellipse cx="156.31" cy="311.89" rx="8.39" ry="11.52" style="fill:#80A0ED;"></ellipse><g style="opacity:.1;"><path d="M362.41,185.76l-59.89,38.6s.66,4.46,1.7,8.1l64.6-40.86c-1.52-1.75-3.47-3.84-6.41-5.84Z" style="fill:#fff;"></path></g><g style="opacity:.1;"><path d="M371.75,195.36l-65.49,41.37s2.61,5.43,6.24,9.26l64.34-40.36c-.45-1.98-3.2-7.84-5.08-10.27Z" style="fill:#fff;"></path></g><g style="opacity:.3;"><path d="M309.48,209.52c1.64-6.83,5.61-13.05,11.22-17.29,.65-.49,.98-1.29,.54-2.05-.37-.64-1.4-1.03-2.05-.54-6.25,4.72-10.77,11.45-12.6,19.09-.45,1.88,2.44,2.68,2.89,.8h0Z" style="fill:#fff;"></path></g><g style="opacity:.3;"><path d="M325.64,188.7h.11c.21,0,.4-.04,.58-.13,.19-.06,.35-.16,.48-.31,.15-.14,.25-.3,.31-.48,.09-.18,.14-.37,.13-.58l-.05-.4c-.07-.25-.2-.47-.39-.66-.1-.08-.2-.16-.3-.23-.23-.14-.49-.2-.76-.2h-.11c-.21,0-.4,.04-.58,.13-.19,.06-.35,.16-.48,.31-.15,.14-.25,.3-.31,.48-.09,.18-.14,.37-.13,.58,.02,.13,.04,.27,.05,.4,.07,.25,.2,.47,.39,.66l.3,.23c.23,.14,.49,.2,.76,.2h0Z" style="fill:#fff;"></path></g><g style="opacity:.2;"><path d="M361.84,131.66c-64.03-9.42-139.64,23.4-193.15,57.53,0,0,61.45-34.31,112.13-46.81,50.14-12.36,81.02-10.73,81.02-10.73Z"></path></g><g><g style="opacity:.3;"><path d="M303.96,287.6c5.61-.42,11.23-.75,16.85-.99,.96-.04,.97-1.54,0-1.5-5.62,.25-11.24,.57-16.85,.99-.96,.07-.96,1.57,0,1.5h0Z" style="fill:#fff;"></path></g><g style="opacity:.3;"><path d="M324.69,286.44c.44,0,.88-.02,1.31-.03,.19,0,.39-.08,.53-.22,.13-.13,.23-.34,.22-.53,0-.19-.07-.4-.22-.53-.15-.13-.33-.22-.53-.22-.44,0-.88,.02-1.31,.03-.19,0-.39,.08-.53,.22-.13,.13-.23,.34-.22,.53,0,.19,.07,.4,.22,.53,.14,.13,.33,.22,.53,.22h0Z" style="fill:#fff;"></path></g></g><g><g style="opacity:.3;"><path d="M284.55,295.03c5.61-.42,11.23-.75,16.85-.99,.96-.04,.97-1.54,0-1.5-5.62,.25-11.24,.57-16.85,.99-.96,.07-.96,1.57,0,1.5h0Z" style="fill:#fff;"></path></g><g style="opacity:.3;"><path d="M305.28,293.88c.44,0,.88-.02,1.31-.03,.19,0,.39-.08,.53-.22,.13-.13,.23-.34,.22-.53,0-.19-.07-.4-.22-.53-.15-.13-.33-.22-.53-.22-.44,0-.88,.02-1.31,.03-.19,0-.39,.08-.53,.22-.13,.13-.23,.34-.22,.53,0,.19,.07,.4,.22,.53,.15,.13,.33,.22,.53,.22h0Z" style="fill:#fff;"></path></g></g><g><g style="opacity:.3;"><path d="M271.06,301.53c3.71-.35,7.42-.65,11.13-.87,1.3-.08,2.6-.15,3.9-.19,.4-.01,.81-.03,1.21-.02,.12,0,.27,.03,.39,.01,.03,0,.08,.02,.11,0-.2,.09-.61-.6-.59-.51l.08-.58,.25-.25c-.8,.53-.05,1.83,.76,1.3,.45-.3,.54-.93,.09-1.27-.26-.2-.59-.19-.89-.2-1.18-.04-2.37,.05-3.55,.11-4.3,.22-8.59,.56-12.87,.96-.95,.09-.96,1.59,0,1.5h0Z" style="fill:#fff;"></path></g><g style="opacity:.3;"><path d="M291.79,300.37c.44,0,.88-.02,1.31-.03,.19,0,.39-.08,.53-.22,.13-.13,.23-.34,.22-.53,0-.19-.07-.4-.22-.53-.15-.13-.33-.22-.53-.22-.44,0-.88,.02-1.31,.03-.19,0-.39,.08-.53,.22-.13,.13-.23,.34-.22,.53,0,.19,.07,.4,.22,.53,.14,.13,.33,.22,.53,.22h0Z" style="fill:#fff;"></path></g></g><g style="opacity:.1;"><path d="M384.98,304.23c-1.33-.58-2.81-.86-4.3-.79-13.35,.58-81.39,3.69-81.71,6.81-.36,3.45,85.08,26.87,97,26.93,13.59,.06,32.39-1.98,28.15-10.03-3.64-6.9-31.32-19.47-39.13-22.91Z" style="fill:#fff;"></path></g></g></g></svg>
